<svg xmlns="http://www.w3.org/2000/svg" xmlns:xlink="http://www.w3.org/1999/xlink" width="77" zoomAndPan="magnify" viewBox="0 0 57.75 53.25" height="71" preserveAspectRatio="xMidYMid meet" version="1.0"><defs><clipPath id="76c2d2d287"><path d="M 0.277344 0 L 57 0 L 57 51.769531 L 0.277344 51.769531 Z M 0.277344 0 " clip-rule="nonzero"/></clipPath><clipPath id="36d1055787"><path d="M 0.277344 2.957031 L 0.277344 48.996094 C 0.277344 50.628906 1.601562 51.953125 3.234375 51.953125 L 54.023438 51.953125 C 55.65625 51.953125 56.980469 50.628906 56.980469 48.996094 L 56.980469 2.957031 C 56.980469 1.324219 55.65625 0 54.023438 0 L 3.234375 0 C 1.601562 0 0.277344 1.324219 0.277344 2.957031 Z M 0.277344 2.957031 " clip-rule="nonzero"/></clipPath></defs><g clip-path="url(#76c2d2d287)"><g clip-path="url(#36d1055787)"><path fill="#ec5e6b" d="M 55.785156 0.0273438 L 54.109375 0.410156 C 53.082031 0.71875 51.988281 1.164062 50.835938 1.75 L 49.054688 2.734375 C 47.835938 3.457031 46.554688 4.324219 45.207031 5.324219 C 42.515625 7.332031 39.570312 9.894531 36.371094 13.015625 C 28.539062 20.863281 21.589844 29.484375 15.53125 38.878906 C 14.457031 36.617188 12.847656 33.953125 10.710938 30.890625 C 9.574219 29.34375 8.402344 28.183594 7.195312 27.398438 C 5.847656 27.234375 3.636719 28.234375 0.5625 30.390625 C 0.367188 30.6875 0.316406 30.914062 0.417969 31.078125 C 3.179688 33.902344 5.109375 36.246094 6.207031 38.113281 C 8.257812 41.332031 10.410156 45.839844 12.664062 51.644531 C 12.789062 51.839844 12.945312 51.90625 13.136719 51.84375 L 20.480469 47.21875 C 20.828125 46.980469 21.160156 46.660156 21.480469 46.257812 C 25.171875 35.882812 29.574219 27.445312 34.6875 20.945312 C 36.230469 18.753906 40.03125 14.886719 46.085938 9.34375 C 48.539062 7.15625 52.03125 4.503906 56.566406 1.386719 C 56.828125 0.789062 56.570312 0.335938 55.785156 0.0273438 " fill-opacity="0.996" fill-rule="nonzero"/></g></g></svg>