<svg xmlns="http://www.w3.org/2000/svg" xmlns:xlink="http://www.w3.org/1999/xlink" width="341" zoomAndPan="magnify" viewBox="0 0 255.75 289.499996" height="386" preserveAspectRatio="xMidYMid meet" version="1.0"><defs><clipPath id="9f3ff0fd66"><path d="M 11 46 L 244 46 L 244 231 L 11 231 Z M 11 46 " clip-rule="nonzero"/></clipPath><clipPath id="cfe02d9054"><path d="M 83.664062 0 L 254.902344 63.652344 L 171.425781 288.222656 L 0.1875 224.574219 Z M 83.664062 0 " clip-rule="nonzero"/></clipPath><clipPath id="0d73d85e88"><path d="M 83.664062 0 L 254.902344 63.652344 L 171.425781 288.222656 L 0.1875 224.574219 Z M 83.664062 0 " clip-rule="nonzero"/></clipPath></defs><g clip-path="url(#9f3ff0fd66)"><g clip-path="url(#cfe02d9054)"><g clip-path="url(#0d73d85e88)"><path fill="#f05c3d" d="M 209 46.632812 C 208.4375 46.457031 207.855469 46.597656 207.558594 47.292969 L 206.949219 48.871094 C 206.832031 49.167969 206.675781 49.15625 206.078125 49.34375 L 204.941406 49.695312 C 204.191406 50.164062 203.464844 51.351562 203.683594 52.523438 C 203.757812 52.925781 204.109375 53.28125 204.019531 53.628906 C 203.910156 54.054688 204.207031 54.796875 204.574219 55.535156 C 205.003906 56.398438 205.136719 56.96875 205.054688 57.363281 C 204.972656 57.75 205.042969 58.121094 205.03125 58.460938 C 205.015625 59.035156 204.742188 59.691406 204.363281 59.914062 C 203.898438 60.1875 203.65625 60.601562 203.460938 61.097656 L 202.078125 64.601562 C 201.953125 64.921875 201.917969 65.238281 201.390625 65.351562 C 200.929688 65.449219 200.507812 65.792969 201.007812 66.238281 C 201.292969 66.496094 201.222656 66.804688 201.03125 67.355469 L 199.996094 70.347656 C 199.738281 71.09375 199.160156 71.40625 198.6875 71.507812 C 198.375 71.578125 198.125 71.710938 197.527344 71.925781 C 197.1875 72.050781 195.71875 73.359375 196.777344 73.8125 C 197.179688 73.984375 196.949219 74.355469 196.738281 74.878906 L 195.433594 78.183594 C 194.835938 79.117188 193.714844 79.945312 192.089844 79.414062 C 191.316406 79.160156 190.296875 78.6875 189.3125 78.433594 C 187.792969 78.035156 188.410156 77.433594 187.972656 76.980469 C 187.207031 76.1875 185.429688 75.628906 184.53125 75.984375 C 183.4375 76.414062 183.464844 77.0625 183.402344 77.628906 C 183.339844 78.230469 183.53125 78.828125 183.953125 79.480469 C 184.558594 80.417969 183.710938 81.644531 182.71875 82.242188 C 182.019531 82.660156 181.230469 83.027344 180.34375 83.367188 C 180.058594 83.476562 179.652344 83.644531 179.09375 83.675781 C 178.902344 83.6875 178.632812 83.699219 178.171875 83.875 C 177.867188 83.988281 177.546875 83.96875 177.058594 84.027344 C 176.734375 84.066406 176.425781 84.300781 175.742188 84.722656 C 175.3125 84.992188 175.179688 85.398438 174.890625 85.566406 C 174.425781 85.832031 174.277344 86.316406 174.105469 86.769531 L 173.207031 89.191406 C 173.011719 89.863281 172.835938 90.222656 173.472656 90.835938 C 173.800781 91.152344 174.003906 91.5 174.140625 91.804688 C 174.390625 92.351562 174.765625 92.800781 175.125 93.25 C 175.363281 93.558594 175.351562 93.976562 175.515625 94.273438 C 176.007812 95.171875 176.128906 95.554688 176.011719 96.054688 L 175.664062 97.550781 C 175.425781 98.109375 175.265625 98.328125 174.699219 98.480469 L 173.828125 98.746094 C 172.855469 99.046875 172.328125 100.804688 172.472656 101.488281 C 172.613281 102.160156 172.710938 102.933594 173.40625 103.484375 C 173.734375 103.746094 174.09375 103.84375 174.277344 104.117188 C 174.648438 104.667969 175.074219 104.824219 175.679688 104.433594 C 175.96875 104.25 176.34375 104.125 176.558594 103.804688 C 176.867188 103.347656 177.203125 102.871094 177.355469 102.144531 C 177.585938 101.0625 177.894531 100.871094 178.289062 100.535156 C 178.90625 100.015625 179.699219 99.625 180.453125 99.226562 C 180.789062 99.046875 181.222656 98.921875 181.480469 99.789062 C 181.636719 100.320312 181.890625 100.699219 182.320312 100.925781 C 182.785156 101.167969 183.097656 101.332031 183.375 101.550781 C 183.882812 101.949219 184.40625 102.097656 185.113281 101.652344 C 185.542969 101.386719 186.027344 101.226562 186.605469 100.894531 C 187.292969 100.503906 187.59375 100.109375 186.527344 99.449219 C 185.820312 99.011719 185.066406 98.28125 184.195312 97.472656 C 183.957031 97.253906 183.625 97.0625 183.800781 96.65625 L 184.132812 95.90625 C 184.421875 95.25 184.175781 94.90625 183.507812 94.746094 C 182.710938 94.554688 181.484375 94.085938 180.945312 93.742188 C 180.101562 93.207031 179.105469 92.328125 179.074219 91.011719 L 179.449219 89.863281 C 179.714844 89.050781 179.84375 88.144531 181.003906 87.761719 C 181.324219 87.652344 181.460938 87.625 181.789062 87.511719 C 182.347656 87.320312 182.628906 87.410156 182.960938 87.484375 C 183.519531 87.605469 183.992188 87.667969 184.363281 87.796875 C 185.535156 88.207031 185.804688 88.859375 186.007812 89.542969 C 186.207031 90.207031 186.21875 90.738281 186.234375 91.636719 C 186.253906 92.710938 186.0625 92.875 187.386719 92.140625 L 190.890625 90.199219 C 191.378906 89.929688 191.472656 89.675781 192.753906 89.835938 C 193.304688 89.902344 193.90625 90.03125 194.242188 90.054688 C 195.433594 90.132812 196.503906 90.632812 197.667969 91.09375 C 198.453125 91.40625 198.878906 91.738281 199.171875 92.246094 C 199.496094 92.808594 199.824219 93.257812 200.355469 93.847656 C 200.960938 94.515625 201.210938 95.222656 201.539062 95.859375 C 201.703125 96.175781 201.722656 96.375 202.210938 96.828125 C 202.492188 97.09375 202.628906 97.425781 202.78125 97.710938 C 203.0625 98.222656 203.261719 98.582031 203.652344 98.832031 C 204.035156 99.078125 204.164062 99.460938 204.375 99.667969 C 205.230469 100.511719 206.3125 101.019531 207.324219 101.640625 C 208.539062 102.386719 209.210938 102.875 209.796875 103.589844 C 210.96875 105.027344 210.886719 105.023438 211.667969 103.125 L 212.726562 100.554688 C 213.414062 98.890625 213.933594 97.574219 215.082031 96.640625 C 215.445312 96.347656 216.023438 96.175781 216.5 95.597656 C 216.851562 95.171875 217.21875 94.808594 217.929688 94.660156 C 218.367188 94.566406 218.738281 94.125 219.210938 93.847656 C 220.4375 93.128906 221.636719 92.460938 223.21875 91.9375 C 224.078125 91.652344 224.160156 91.4375 224.570312 91.28125 C 226.15625 90.671875 227.085938 91.667969 228.132812 92.578125 C 228.703125 93.074219 229.414062 93.289062 230.011719 93.484375 C 230.980469 93.792969 231.164062 94.050781 230.65625 92.589844 C 230.28125 91.519531 231.617188 90.0625 232.308594 92.09375 C 232.71875 93.316406 233.570312 92.992188 234.652344 92.371094 C 235.636719 91.808594 236.765625 91.65625 237.8125 91.695312 C 239.324219 91.75 240.191406 91.035156 241.210938 90.175781 C 241.980469 89.527344 245.761719 89.058594 240.6875 89.234375 C 239.289062 89.28125 238.5625 88.507812 238.214844 86.949219 C 238.09375 86.410156 238.136719 85.84375 237.890625 85.253906 C 237.738281 84.902344 237.726562 84.570312 237.695312 84.253906 C 237.660156 83.917969 237.59375 83.609375 237.410156 83.144531 C 237.242188 82.722656 237.242188 82.257812 237.347656 81.859375 C 237.433594 81.542969 237.441406 80.683594 237.578125 80.066406 C 237.785156 79.125 238.402344 77.421875 239.132812 77.0625 C 239.421875 76.917969 239.777344 76.53125 240.40625 76.195312 C 241.027344 75.863281 241.4375 75.195312 241.742188 74.476562 C 242.601562 72.429688 242.710938 72.738281 240.363281 73.679688 C 239.179688 74.15625 238.433594 74.691406 237.914062 75.554688 C 237.640625 76.011719 237.136719 76.175781 236.429688 76.570312 C 235.933594 76.847656 235.207031 76.683594 234.402344 77.105469 C 233.859375 77.390625 232.222656 76.765625 230.859375 76.023438 C 230.121094 75.617188 227.804688 74.496094 226.375 73.8125 C 225.203125 73.253906 224.042969 72.398438 223.21875 71.148438 C 222.683594 70.332031 222.09375 69.285156 221.242188 68.917969 C 220.503906 68.597656 219.761719 67.433594 219.308594 66.628906 C 219.027344 66.125 219.070312 66.097656 218.789062 65.738281 C 218.5 65.367188 218.378906 65.078125 218.242188 64.789062 C 218.027344 64.332031 217.769531 63.996094 217.472656 63.730469 C 216.863281 63.183594 216.617188 62.222656 216.234375 61.3125 C 215.746094 60.148438 215.234375 58.992188 214.605469 58.078125 C 214.207031 57.503906 213.882812 56.722656 213.523438 55.71875 C 213.257812 54.984375 212.851562 54.402344 212.589844 53.722656 L 210.328125 47.882812 C 210.105469 47.308594 209.5625 46.8125 209 46.632812 Z M 183.789062 106.398438 C 183.128906 106.199219 182.308594 106.457031 182.058594 107.371094 L 182.0625 107.371094 C 181.894531 107.988281 181.371094 108.429688 181.054688 108.699219 C 180.492188 109.175781 179.203125 110.265625 179.878906 110.886719 C 181.582031 112.457031 183.34375 111.457031 183.839844 111.175781 C 184.996094 110.527344 185.9375 110.808594 185.371094 112.261719 C 184.992188 113.226562 184.460938 115.425781 183.980469 115.789062 C 182.910156 116.597656 182.722656 116.390625 182.382812 115.65625 C 181.699219 114.1875 180.515625 114.582031 179.941406 115.292969 C 178.960938 116.503906 178.230469 115.761719 178.011719 115.21875 C 177.789062 114.664062 177.464844 113.972656 177.640625 113.304688 C 177.832031 112.578125 178.464844 111.433594 178.472656 111.0625 C 178.5 110.042969 178.445312 108.769531 176.976562 108.988281 C 176.644531 109.035156 176.035156 109.058594 175.707031 108.796875 C 175.210938 108.402344 174.375 109.675781 174.121094 110.292969 C 173.988281 110.617188 173.011719 113.664062 172.765625 114.015625 C 172.140625 114.890625 171.414062 115.714844 169.582031 116.128906 C 169.234375 116.210938 168.746094 116.113281 168.390625 116.152344 C 167.667969 116.230469 166.597656 116.425781 167.28125 117.746094 C 167.46875 118.109375 167.554688 118.65625 167.617188 119.058594 C 167.671875 119.390625 167.882812 120.011719 168.160156 120.445312 C 168.554688 121.066406 168.40625 121.726562 168.226562 122.273438 C 168.058594 122.78125 167.652344 123.621094 167.402344 124.207031 C 166.949219 125.292969 165.703125 126.21875 165.046875 126.398438 C 164.40625 126.570312 163.273438 127.042969 162.867188 127.957031 C 162.414062 128.980469 164.101562 130.640625 165.679688 129.054688 C 165.886719 128.84375 166.074219 128.664062 166.242188 128.234375 C 166.941406 126.449219 167.359375 127.652344 166.835938 128.503906 C 166.589844 128.914062 166.421875 129.542969 166.238281 129.984375 C 166.023438 130.488281 166 131.230469 166.269531 131.695312 C 166.535156 132.148438 166.242188 132.878906 166.058594 133.367188 C 165.617188 134.558594 164.796875 136.988281 164.359375 137.941406 C 164.128906 138.449219 163.707031 139.121094 163.238281 139.429688 C 162.539062 139.894531 162.238281 140.859375 161.9375 141.960938 C 161.757812 142.625 160.1875 144.515625 159.210938 145.148438 C 158.328125 145.714844 157.585938 146.375 157.296875 147.242188 C 157.214844 147.488281 157.074219 147.695312 156.835938 147.972656 C 156.550781 148.304688 156.226562 148.625 155.914062 148.816406 C 155.5625 149.027344 155.011719 150.816406 154.675781 151.65625 C 153.855469 153.703125 151.3125 155.640625 149.308594 155.839844 C 148.460938 155.925781 145.308594 157.234375 144.507812 158.773438 C 144.300781 159.175781 143.71875 159.863281 142.917969 160.421875 C 142.351562 160.816406 141.722656 161.753906 141.390625 162.171875 C 140.992188 162.675781 140.507812 163.269531 139.96875 163.574219 C 139.386719 163.90625 138.609375 164.453125 137.960938 164.605469 C 137.472656 164.722656 136.808594 164.914062 136.324219 165.132812 C 135.878906 165.332031 135.25 165.554688 134.765625 165.582031 C 134.277344 165.613281 133.699219 165.765625 133.339844 165.953125 C 132.855469 166.207031 132.105469 166.152344 131.527344 166.390625 C 130.792969 166.6875 130.261719 166.582031 129.023438 166.542969 C 128.417969 166.519531 127.550781 166.027344 126.988281 166.195312 C 126.675781 166.292969 126.101562 166.640625 125.773438 166.621094 C 125.585938 166.609375 125.089844 166.855469 124.925781 167.308594 C 124.644531 168.078125 123.589844 168.742188 122.347656 168.078125 C 120.980469 167.347656 120.855469 164.605469 121.421875 164.332031 C 122.230469 163.945312 122.136719 163.386719 121.347656 162.863281 C 120.480469 162.289062 121.460938 161.5 122.253906 161.398438 C 123.003906 161.296875 124.382812 161.058594 125.128906 160.457031 C 125.332031 160.292969 125.949219 159.789062 126.199219 159.722656 C 126.492188 159.640625 127.378906 158.433594 127.207031 157.777344 C 126.941406 156.769531 125.0625 156.707031 124.394531 157.296875 C 124.015625 157.632812 123.464844 158.152344 121.722656 157.695312 C 121.242188 157.570312 120.03125 157.878906 119.582031 158.1875 C 119.253906 158.414062 118.78125 158.671875 118.414062 158.835938 C 117.09375 159.433594 117.285156 160.878906 117.433594 162.027344 C 117.554688 162.964844 116.5625 167.234375 115.011719 168.339844 C 114.625 168.613281 114.121094 169.132812 113.738281 169.410156 C 112.492188 170.304688 110.753906 171.359375 109.476562 172.207031 C 108.8125 172.652344 107.835938 173.140625 107.269531 173.707031 C 106.625 174.351562 105.816406 174.761719 105.128906 175.101562 C 103.972656 175.671875 104.164062 176.726562 104.679688 178.050781 C 104.917969 178.671875 105.539062 181 102.738281 181.398438 C 102.316406 181.457031 101.542969 181.011719 100.855469 181.882812 C 100.601562 182.207031 100.066406 182.433594 99.664062 182.523438 C 99.273438 182.613281 98.8125 182.492188 98.320312 182.539062 C 97.976562 182.570312 97.441406 182.59375 97.113281 182.15625 C 96.953125 181.941406 96.855469 181.539062 96.839844 181.191406 C 96.796875 180.425781 95.59375 180.539062 95.015625 181.308594 C 94.355469 182.195312 93.597656 181.617188 93.921875 179.820312 C 93.984375 179.46875 94.375 178.890625 94.664062 178.242188 C 94.894531 177.71875 94.933594 177.238281 94.207031 176.835938 C 93.734375 176.574219 93.226562 176.816406 92.476562 177.328125 C 92.164062 177.542969 91.726562 177.90625 91.355469 177.992188 C 90.445312 178.207031 90.339844 178.550781 88.867188 177.890625 C 87.992188 177.5 87.558594 176.816406 86.167969 176.347656 C 84.769531 175.875 84.828125 176.203125 83.976562 176.355469 C 83.3125 176.476562 82.339844 176.726562 81.683594 176.5625 C 80.554688 176.28125 79.878906 176.714844 79.15625 176.703125 C 78.558594 176.695312 77.777344 176.664062 77.195312 176.515625 C 76.5 176.335938 75.1875 175.859375 74.339844 175.457031 C 72.398438 174.527344 71.804688 175.5625 70.453125 175.246094 C 69.914062 175.121094 69.144531 174.714844 68.609375 174.585938 C 68 174.441406 67.574219 173.648438 68.125 173.402344 C 68.617188 173.179688 68.851562 172.644531 67.683594 172.234375 C 67.070312 172.015625 66.433594 171.878906 66 172.25 C 65.636719 172.5625 64.6875 172.734375 63.863281 172.875 C 62.707031 173.070312 61.472656 173.644531 61.199219 174.074219 C 60.898438 174.554688 60.105469 174.957031 59.511719 175.222656 C 57.921875 175.933594 55.710938 176.621094 54.074219 177.582031 C 53.242188 178.070312 52.550781 178.613281 51.21875 179.097656 C 50.324219 179.421875 49.335938 180.054688 48.570312 180.535156 C 46.988281 181.527344 46.324219 181.628906 45.5625 181.21875 C 44.691406 180.75 43.238281 181.574219 42.523438 182.253906 C 42.003906 182.746094 41.378906 183.484375 40.191406 183.398438 C 39.628906 183.355469 38.984375 183.046875 38.214844 183.304688 C 37.921875 183.40625 37.246094 183.121094 36.859375 182.933594 C 35.800781 182.410156 35.277344 183.039062 35.039062 183.542969 C 34.722656 184.195312 34.421875 185.285156 33.96875 185.796875 C 33.554688 186.261719 33.726562 186.726562 34.175781 186.828125 C 34.335938 186.863281 34.628906 187.34375 34.660156 187.472656 C 34.738281 187.792969 35.011719 188.066406 35.390625 188 C 36.289062 187.839844 36.054688 188.597656 36.121094 188.941406 C 36.15625 189.121094 36.199219 189.359375 36.207031 189.542969 C 36.261719 190.523438 37.089844 190.683594 37.730469 190.570312 C 38.007812 190.523438 38.398438 190.191406 39.074219 190.144531 C 39.4375 190.117188 39.878906 189.957031 40.1875 189.785156 C 40.808594 189.4375 42.84375 189.863281 44.457031 191.191406 C 44.628906 191.332031 45.027344 191.835938 45.257812 192.082031 C 45.617188 192.464844 45.820312 192.972656 45.90625 193.25 C 46.019531 193.613281 46.246094 194.097656 46.527344 194.355469 C 46.703125 194.519531 46.910156 194.621094 47.027344 194.953125 C 47.460938 196.1875 47.851562 194.511719 48.085938 194.109375 C 48.324219 193.707031 48.761719 192.277344 49.550781 191.976562 C 49.808594 191.875 51 190.554688 50.996094 189.679688 C 50.980469 187.742188 54.285156 187.914062 54.570312 190.183594 C 54.773438 191.835938 56.484375 191.894531 57.261719 191.261719 C 57.8125 190.8125 59.40625 190.777344 60.242188 191.003906 C 61.082031 191.230469 62.160156 191.289062 63.121094 190.605469 C 63.507812 190.328125 65.21875 189.953125 65.734375 190.777344 C 66.167969 191.472656 66.964844 191.585938 67.214844 190.8125 C 67.378906 190.3125 68.394531 190.125 68.9375 190.476562 C 69.582031 190.890625 70.023438 190.917969 70.371094 190.648438 C 70.886719 190.242188 71.523438 190.953125 71.671875 191.441406 C 71.851562 192.027344 73.710938 192.382812 74.25 191.574219 C 74.394531 191.355469 74.914062 190.820312 76.578125 190.714844 C 77.1875 190.671875 78.722656 190.15625 79.617188 189.679688 C 80.261719 189.332031 81.996094 189.988281 83.292969 190.734375 C 84.175781 191.242188 84.890625 191.917969 85.875 192.183594 C 86.640625 192.390625 87.4375 192.882812 87.972656 193.324219 C 89.296875 194.417969 90.671875 194.25 91.457031 194.414062 C 92.835938 194.707031 92.277344 195.648438 92.070312 196.367188 C 91.886719 197.019531 91.351562 197.484375 90.71875 197.722656 C 90.347656 197.859375 89.988281 198.152344 89.679688 198.367188 C 89.324219 198.613281 88.523438 198.839844 88.066406 198.898438 C 87.097656 199.023438 86.773438 199.324219 86.511719 201.285156 C 86.441406 201.796875 86.140625 202.792969 85.71875 203.410156 C 85.183594 204.191406 85.414062 205.378906 85.945312 205.710938 C 86.546875 206.082031 86.800781 206.800781 86.714844 207.386719 C 86.652344 207.800781 86.914062 208.214844 87.097656 208.636719 C 87.207031 208.890625 87.28125 209.414062 87.410156 209.605469 C 88.039062 210.519531 88.257812 210.660156 88.449219 210.761719 C 88.980469 211.042969 89.480469 211.65625 89.773438 212.183594 C 90.042969 212.65625 90.292969 212.894531 90.601562 213.007812 C 90.894531 213.109375 91.101562 213.476562 91.25 213.554688 C 91.957031 213.933594 92.441406 213.480469 92.882812 213.3125 C 93.0625 213.246094 93.757812 212.796875 94.511719 212.886719 C 95.5 213.003906 95.664062 211.816406 96.117188 210.574219 C 96.953125 208.296875 96.722656 208.765625 98.839844 208.03125 C 100.421875 207.480469 100.996094 207.425781 101.417969 205.949219 C 101.855469 204.410156 102.78125 204.734375 103.804688 204.519531 C 104.816406 204.304688 106.261719 204.636719 107.203125 204.59375 C 107.761719 204.570312 108.28125 205.019531 108.570312 205 C 112.550781 204.769531 109.664062 201.304688 108.871094 200.449219 C 108.523438 200.070312 107.941406 199.527344 107.75 199.105469 C 107.53125 198.625 106.859375 197.839844 106.574219 197.484375 C 106.058594 196.835938 106.570312 196.316406 107.074219 195.863281 C 107.453125 195.523438 108.234375 194.851562 108.671875 194.476562 C 108.996094 194.199219 110.230469 193.957031 110.582031 193.976562 C 111.914062 194.039062 112.222656 193.863281 111.511719 195.429688 C 111.285156 195.925781 111.101562 196.6875 111.207031 197.222656 C 111.605469 199.257812 111.824219 198.417969 113.773438 198.484375 C 114.101562 198.496094 114.539062 198.542969 114.855469 198.628906 C 117.042969 199.226562 115.503906 200.0625 114.894531 200.1875 C 110.886719 201.011719 113.386719 201.179688 115.042969 201.171875 C 116.074219 201.167969 118.945312 201.597656 119.222656 201.644531 C 121.289062 202 124.429688 203.613281 126.480469 204.085938 C 127.289062 204.269531 127.683594 204.925781 128.535156 203.277344 C 128.667969 203.015625 128.824219 202.316406 130.035156 201.796875 C 130.632812 201.542969 131.234375 200.789062 131.640625 199.769531 C 131.878906 199.164062 132.636719 198.644531 133.238281 198.660156 C 133.667969 198.675781 134.386719 198.421875 135.28125 198.363281 C 136.179688 198.304688 137.320312 198.609375 136.589844 200.320312 C 136.367188 200.835938 135.882812 202.234375 135.5 203.109375 C 134.914062 204.4375 135.585938 206.890625 136.746094 205.582031 C 137.03125 205.257812 136.773438 204.78125 138.003906 204.554688 C 138.425781 204.476562 138.875 204.046875 139.296875 203.980469 C 139.808594 203.898438 140.421875 203.550781 140.664062 202.660156 C 140.820312 202.097656 141.109375 201.378906 141.339844 200.847656 C 141.5625 200.328125 141.378906 199.796875 141.160156 199.3125 C 141.058594 199.085938 141.066406 198.820312 141.132812 198.550781 C 141.25 198.050781 141.566406 197.546875 141.757812 197.292969 C 142.285156 196.589844 143.058594 196.332031 143.695312 196.238281 C 144.453125 196.125 145.410156 196.578125 146.136719 196.808594 C 147.148438 197.132812 147.203125 197.75 147.09375 198.398438 C 146.785156 200.195312 150.28125 199.769531 149.199219 196.609375 C 149.054688 196.175781 148.960938 195.339844 149.160156 194.636719 C 149.449219 193.621094 149.808594 192.746094 150.976562 192.65625 C 151.398438 192.625 151.972656 192.621094 152.394531 192.589844 C 154.148438 192.464844 156.128906 193.863281 153.9375 195.019531 C 153.589844 195.203125 152.71875 195.613281 152.335938 195.789062 C 151.695312 196.085938 151.328125 195.535156 150.574219 197.554688 C 150.265625 198.386719 149.820312 199.503906 149.5625 200.347656 C 149.457031 200.683594 149.410156 201.285156 149.433594 201.667969 C 149.457031 202.085938 149.332031 202.496094 149.140625 202.871094 C 148.722656 203.683594 149.113281 204.183594 149.6875 204.3125 C 150.433594 204.480469 151.273438 204.15625 151.683594 203.507812 C 151.847656 203.25 152.148438 202.597656 153.3125 202.386719 C 153.878906 202.285156 154.753906 201.847656 155.457031 201.816406 C 156.328125 201.78125 157.0625 201.574219 157.582031 199.699219 C 157.84375 198.765625 158.488281 197.671875 158.738281 196.933594 C 159.101562 195.867188 159.453125 194.519531 161.175781 194.464844 C 161.804688 194.445312 162.539062 194.230469 163.167969 194.175781 C 164.953125 194.015625 164.492188 192.992188 164.097656 192.152344 C 163.785156 191.480469 163.335938 190.453125 163.078125 189.761719 C 162.523438 188.257812 162.542969 186.269531 163.105469 184.773438 C 163.4375 183.890625 163.894531 182.671875 164.191406 181.777344 C 164.445312 181.019531 165.046875 180.109375 165.644531 179.535156 C 166.246094 178.957031 166.980469 178.265625 167.578125 177.523438 C 167.929688 177.085938 168.011719 176.464844 169.398438 175.675781 C 169.972656 175.347656 170.585938 174.429688 170.953125 173.574219 C 171.199219 172.996094 171.570312 172.09375 171.824219 171.371094 C 172.027344 170.78125 172.058594 169.984375 172.109375 169.417969 C 172.167969 168.777344 172.464844 167.941406 172.511719 167.300781 C 172.601562 166.058594 172.578125 164.347656 172.195312 163.164062 C 171.949219 162.414062 171.898438 161.367188 172.066406 160.589844 C 172.285156 159.613281 172.585938 158.515625 172.90625 157.503906 C 173.078125 156.953125 173.734375 156.246094 174.339844 156 C 175.261719 155.628906 176.550781 155.132812 177.363281 155.011719 C 178.148438 154.894531 179.140625 155.386719 179.398438 155.84375 C 179.527344 156.078125 179.761719 156.199219 179.984375 156.347656 C 180.773438 156.871094 181.207031 155.980469 180.894531 155.140625 C 180.675781 154.550781 180.671875 153.597656 180.671875 152.96875 C 180.667969 150.140625 182.835938 147.378906 184.609375 146.808594 C 185.09375 146.652344 186.457031 145.652344 186.679688 145.257812 C 187.035156 144.636719 187.765625 143.699219 188.207031 142.683594 C 188.296875 142.46875 188.601562 141.835938 188.917969 141.453125 C 190.40625 139.671875 190.375 138.21875 190.464844 136.875 C 190.582031 135.167969 190.539062 133.195312 190.039062 132.207031 C 189.1875 130.53125 189.167969 128.972656 188.875 127.578125 C 188.660156 126.566406 188.34375 125.273438 187.765625 124.175781 C 187.503906 123.679688 187.253906 123.003906 187.066406 122.320312 C 186.886719 121.675781 186.640625 120.777344 186.195312 120.089844 C 186.027344 119.832031 185.984375 119.148438 185.921875 118.675781 C 185.867188 118.238281 185.953125 117.667969 186.351562 116.824219 C 186.609375 116.289062 187.066406 115.25 187.226562 114.675781 C 187.566406 113.488281 187.21875 113.308594 187.21875 112.898438 C 187.222656 112.386719 187.460938 111.878906 187.601562 111.390625 C 187.699219 111.039062 187.777344 110.644531 188.148438 109.636719 C 188.589844 108.441406 187.972656 108.378906 186.9375 108.667969 C 186.175781 108.882812 185.058594 108.542969 184.648438 107.199219 C 184.527344 106.796875 184.1875 106.515625 183.789062 106.398438 Z M 143.769531 148.53125 C 143.355469 148.371094 142.792969 148.488281 142.261719 149.152344 C 141.945312 149.550781 141.390625 149.960938 141.21875 150.4375 C 140.894531 151.328125 140.617188 151.089844 140.140625 151.324219 C 139.269531 151.757812 139.449219 152.636719 139.871094 152.953125 C 140.046875 153.085938 140.230469 153.472656 139.851562 154.179688 C 139.722656 154.425781 139.484375 154.832031 139.410156 155.097656 C 139.003906 156.507812 139.949219 156.023438 140.464844 155.722656 C 141.195312 155.296875 142.316406 154.984375 142.992188 154.472656 C 143.765625 153.878906 143.984375 153.011719 142.996094 152.929688 C 142.621094 152.898438 142.144531 152.347656 143.058594 151.304688 C 143.292969 151.039062 143.496094 150.628906 143.792969 150.441406 C 144.746094 149.847656 144.460938 148.800781 143.769531 148.53125 Z M 157.695312 170.367188 C 157.433594 170.367188 157.167969 170.40625 156.898438 170.476562 C 157.167969 170.40625 157.433594 170.367188 157.695312 170.367188 Z M 153.636719 172 C 153.121094 172.179688 152.539062 172.273438 151.996094 172.417969 C 152.539062 172.273438 153.121094 172.179688 153.636719 172 Z M 164.335938 176.089844 C 164.195312 176.160156 164.058594 176.25 163.933594 176.363281 C 163.765625 176.519531 163.601562 176.675781 163.433594 176.792969 C 163.601562 176.675781 163.765625 176.519531 163.933594 176.363281 C 164.058594 176.25 164.195312 176.160156 164.335938 176.089844 Z M 148.714844 171.363281 C 148.816406 171.4375 148.917969 171.507812 149.019531 171.578125 C 148.917969 171.507812 148.816406 171.4375 148.714844 171.363281 Z M 151.164062 172.492188 C 150.890625 172.46875 150.621094 172.40625 150.347656 172.304688 C 150.621094 172.40625 150.890625 172.46875 151.164062 172.492188 Z M 140.21875 195.261719 C 140.21875 195.417969 140.191406 195.554688 140.152344 195.679688 C 140.191406 195.554688 140.21875 195.417969 140.21875 195.261719 Z M 108.175781 190.621094 C 108.324219 190.75 108.503906 190.867188 108.714844 190.972656 C 108.503906 190.867188 108.324219 190.75 108.175781 190.621094 Z M 110.09375 192.515625 C 110.136719 192.613281 110.183594 192.707031 110.230469 192.796875 C 110.183594 192.707031 110.136719 192.613281 110.09375 192.515625 Z M 86.730469 194.078125 C 86.472656 193.984375 86.183594 194.015625 86.027344 194.199219 C 85.804688 194.457031 85.253906 194.410156 85.039062 194.632812 C 84.832031 194.851562 84.433594 195.050781 84.195312 195.167969 C 84.015625 195.261719 83.648438 195.285156 83.28125 195.625 C 82.9375 195.941406 82.601562 196.132812 82.382812 196.863281 C 82.101562 197.796875 82.324219 197.867188 82.464844 198.234375 C 82.835938 199.203125 84.433594 199.675781 84.976562 197.855469 C 85.007812 197.753906 85.125 197.21875 85.890625 196.851562 C 86.199219 196.707031 86.441406 196.503906 86.660156 196.238281 C 86.808594 196.058594 86.992188 195.695312 87.136719 195.511719 C 87.457031 195.101562 87.414062 194.570312 86.972656 194.214844 C 86.898438 194.15625 86.816406 194.113281 86.730469 194.078125 Z M 73.53125 193.773438 C 73.019531 193.59375 72.386719 193.65625 71.785156 193.902344 C 71.234375 194.128906 70.449219 194.40625 69.863281 194.503906 C 68.144531 194.785156 68.082031 195.363281 67.640625 196.460938 C 67.324219 197.246094 65.675781 198 64.351562 197.273438 C 64.027344 197.09375 62.972656 196.777344 62.261719 197.214844 C 61.183594 197.875 60.886719 196.703125 60.609375 195.828125 C 60.230469 194.617188 59.976562 193.460938 58.175781 194.203125 C 57.375 194.535156 56.519531 195.101562 56.148438 196.050781 C 56.09375 196.199219 55.910156 196.847656 55.1875 197.113281 C 54.804688 197.25 54.375 197.722656 54.140625 198.191406 C 53.875 198.738281 53.5625 199.03125 52.695312 199.171875 C 52.28125 199.242188 51.742188 199.527344 51.347656 199.679688 C 49.96875 200.199219 48.816406 201.210938 46.855469 200.816406 C 45.273438 200.496094 43.726562 200.289062 46.652344 201.359375 C 47.96875 201.839844 49.121094 201.617188 49.679688 203.410156 C 49.808594 203.824219 49.710938 204.628906 49.9375 205 C 50.128906 205.3125 49.921875 205.777344 49.328125 206.011719 C 48.894531 206.183594 48.496094 206.867188 48.042969 207.671875 C 47.707031 208.265625 46.976562 208.714844 46.480469 209.175781 C 43.996094 211.46875 46.261719 210.089844 46.847656 209.570312 C 47.878906 208.660156 48.539062 209.144531 48.789062 210.035156 C 48.984375 210.738281 49.226562 211.6875 49.347656 212.40625 C 49.535156 213.515625 50.402344 213.507812 51.203125 213.097656 C 51.816406 212.785156 52.6875 212.96875 53.199219 213.273438 C 54.300781 213.929688 54.410156 212.617188 54.15625 212.082031 C 53.773438 211.261719 54.722656 210.71875 55.667969 210.375 C 56.363281 210.125 57.058594 209.546875 57.589844 209.160156 C 58.222656 208.691406 58.714844 208.332031 59.144531 207.265625 C 59.734375 205.792969 60.933594 205.769531 62.105469 205.738281 C 62.722656 205.71875 63.507812 205.355469 63.804688 205.054688 C 64.582031 204.261719 65.4375 204.820312 66.058594 205.015625 C 67.128906 205.355469 67.671875 205.886719 68.078125 206.515625 C 68.316406 206.886719 68.730469 207.410156 68.820312 207.847656 C 69.007812 208.75 69.554688 209.152344 69.75 209.636719 C 70.214844 210.769531 70.824219 210.300781 71.261719 209.730469 C 71.625 209.257812 71.957031 208.765625 72.46875 208.351562 C 73.015625 207.910156 73.457031 207.261719 73.78125 207.039062 C 75.171875 206.078125 77.402344 205.128906 79.105469 204.710938 C 79.671875 204.574219 80.382812 204.023438 80.574219 203.25 C 80.792969 202.382812 80.863281 201.628906 80.441406 201.320312 C 80.042969 201.027344 79.953125 199.777344 80.351562 198.996094 C 80.539062 198.632812 80.605469 198.199219 79.453125 198.015625 C 79.066406 197.953125 78.0625 197.453125 78.089844 197.046875 C 78.09375 196.972656 78.222656 196.457031 77.273438 196.046875 C 76.808594 195.847656 76.703125 195.457031 76.492188 195.242188 C 76.101562 194.84375 75.691406 194.730469 75.339844 195.019531 C 75.054688 195.253906 74.488281 194.683594 74.292969 194.371094 C 74.101562 194.074219 73.839844 193.878906 73.53125 193.773438 Z M 34.15625 188.265625 C 34.164062 188.269531 33.859375 188.3125 33.402344 188.214844 C 33.109375 188.152344 32.730469 188.414062 32.445312 188.503906 C 32.042969 188.632812 31.769531 188.691406 31.109375 188.289062 C 30.460938 187.894531 29.386719 188.125 28.199219 188.703125 C 27.066406 189.25 26.554688 189.738281 26.367188 190.238281 C 26.074219 191.003906 24.742188 191.914062 23.859375 190.878906 C 23.175781 190.074219 22.160156 190.289062 21.695312 191.230469 C 21.113281 192.402344 20.601562 191.992188 19.527344 191.585938 C 18.921875 191.355469 17.761719 190.613281 17.265625 192.46875 C 16.855469 194.007812 16.707031 193.617188 15.714844 192.691406 C 14.582031 191.636719 12.199219 192.257812 12.957031 194.292969 C 13.09375 194.667969 13.484375 195.09375 13.542969 195.492188 C 13.679688 196.449219 14.320312 197.398438 15.238281 197.71875 C 15.75 197.898438 16.464844 199.4375 16.539062 200.316406 C 16.613281 201.164062 15.980469 201.824219 15.078125 201.058594 C 14.675781 200.722656 14.414062 200.339844 14.566406 199.53125 C 14.800781 198.269531 13.773438 197.222656 13.371094 197.335938 C 12.707031 197.519531 12.242188 199.5625 12.734375 200.292969 C 13.167969 200.933594 13.820312 202.421875 12.988281 203.144531 C 11.921875 204.070312 13.019531 204.339844 14.285156 203.960938 C 14.90625 203.769531 15.933594 203.351562 16.660156 203.039062 C 18.78125 202.136719 18.902344 203.347656 18.15625 204.421875 C 17.300781 205.648438 18.117188 206.253906 19.550781 205.660156 C 20.027344 205.464844 20.527344 205.089844 21.0625 204.855469 C 22.226562 204.347656 22.402344 202.574219 20.167969 202.335938 C 19.726562 202.285156 18.738281 202.527344 19.152344 201.183594 C 19.242188 200.902344 20.070312 198.875 20.351562 198.382812 C 21.324219 196.671875 22.960938 198.070312 23.078125 199.5 C 23.164062 200.542969 23.488281 202.121094 23.914062 203.210938 C 24.625 205.042969 22.773438 206.644531 22.441406 206.683594 C 21.195312 206.820312 21.867188 207.25 22.246094 207.484375 C 22.511719 207.652344 22.230469 208.578125 21.476562 210.316406 C 21.203125 210.957031 20.382812 211.460938 19.753906 211.765625 C 18.4375 212.402344 16.789062 213.421875 14.976562 214.78125 C 14.320312 215.269531 13.574219 218.523438 14.664062 219.503906 C 15.609375 220.363281 14.84375 222.933594 13.382812 223.359375 C 11.355469 223.949219 11.519531 226.566406 13.175781 226.964844 C 13.605469 227.070312 14.617188 227.824219 15.234375 228.21875 C 15.710938 228.527344 16.550781 228.9375 16.914062 228.691406 C 18.597656 227.558594 17.796875 226.203125 17.523438 225.464844 C 17.195312 224.582031 16.335938 222.835938 18.40625 222.183594 C 18.980469 222.003906 19.75 221.746094 20.347656 221.671875 C 21.886719 221.480469 21.585938 222.726562 20.632812 222.292969 C 20.09375 222.046875 19.824219 222.121094 19.472656 223.125 C 18.894531 224.785156 19.105469 224.226562 19.851562 225.503906 C 20.492188 226.601562 20.460938 227.953125 18.84375 228.632812 C 15.847656 229.894531 17.152344 231.144531 19.261719 230.902344 C 19.664062 230.855469 20.359375 230.371094 22.03125 230.179688 C 22.710938 230.101562 23.09375 229.839844 23.539062 228.886719 C 23.765625 228.398438 24.015625 227.691406 24.414062 227.226562 C 25.441406 226.039062 26.101562 227.125 26.160156 227.796875 C 26.238281 228.664062 27.210938 229.269531 28.269531 228.222656 C 28.78125 227.714844 29.296875 226.765625 29.59375 226.113281 C 30.316406 224.53125 30.90625 222.242188 31.644531 220.667969 C 32.042969 219.816406 32.214844 218.925781 33.472656 217.6875 C 34.046875 217.125 34.535156 217.042969 35.144531 215.550781 C 35.386719 214.953125 36.257812 212.757812 38.015625 212.058594 C 38.527344 211.855469 39.617188 211.351562 40.007812 210.507812 C 40.230469 210.019531 40.355469 209.679688 41.25 209.242188 C 42.253906 208.753906 42.726562 207.589844 42.351562 206.558594 C 42.074219 205.804688 41.992188 204.613281 41.789062 203.773438 C 41.636719 203.148438 41.761719 202.042969 40.59375 201.65625 C 38.554688 200.980469 39.484375 199.777344 40.476562 199.269531 C 43.167969 197.882812 41.1875 194.40625 38.949219 195.609375 C 38.683594 195.753906 37.886719 195.875 36.777344 195.292969 C 35.820312 194.789062 34.703125 193.117188 34.472656 191.574219 C 34.316406 190.535156 34.246094 188.230469 34.15625 188.265625 Z M 34.15625 188.265625 " fill-opacity="1" fill-rule="evenodd"/></g></g></g></svg>