<svg id="YouTube_Logo_2017" xmlns="http://www.w3.org/2000/svg" width="143.341" height="32" viewBox="0 0 143.341 32">
  <g id="グループ_11642" data-name="グループ 11642" transform="translate(0 0)">
    <path id="パス_5208" data-name="パス 5208" d="M44.756,5A5.724,5.724,0,0,0,40.715.956C37.152,0,22.856,0,22.856,0S8.561,0,5,.956A5.725,5.725,0,0,0,.956,5C0,8.561,0,16,0,16s0,7.439.956,11A5.724,5.724,0,0,0,5,31.044C8.561,32,22.856,32,22.856,32s14.3,0,17.859-.956A5.724,5.724,0,0,0,44.756,27c.956-3.564.956-11,.956-11S45.708,8.561,44.756,5Z" transform="translate(0 0)" fill="red"/>
    <path id="パス_5209" data-name="パス 5209" d="M65.3,46.375l11.876-6.856L65.3,32.663Z" transform="translate(-47.016 -23.519)" fill="#fff"/>
  </g>
  <g id="グループ_11643" data-name="グループ 11643" transform="translate(50.231 1.257)">
    <g id="youtube-paths">
      <path id="パス_5210" data-name="パス 5210" d="M184.553,26.643,179.421,8.107H183.9l1.8,8.4q.689,3.1,1.012,5.294h.132q.226-1.569,1.012-5.264l1.863-8.433h4.478L189,26.643v8.892H184.55V26.643Z" transform="translate(-179.421 -7.094)" fill="#282828"/>
      <path id="パス_5211" data-name="パス 5211" d="M230.565,52.946a5,5,0,0,1-1.93-2.845,18.676,18.676,0,0,1-.572-5.133V42.06a16.841,16.841,0,0,1,.655-5.2A5.222,5.222,0,0,1,230.761,34a6.624,6.624,0,0,1,3.646-.9,6.222,6.222,0,0,1,3.563.914,5.255,5.255,0,0,1,1.961,2.86,17.557,17.557,0,0,1,.621,5.181v2.909a17.83,17.83,0,0,1-.606,5.148,5.05,5.05,0,0,1-1.961,2.845,8.043,8.043,0,0,1-7.42-.015Zm5.065-3.138a9.82,9.82,0,0,0,.376-3.2V40.363a9.591,9.591,0,0,0-.376-3.153,1.345,1.345,0,0,0-1.325-1,1.323,1.323,0,0,0-1.291,1,9.606,9.606,0,0,0-.376,3.153v6.243a10.112,10.112,0,0,0,.361,3.2,1.314,1.314,0,0,0,1.306.982A1.344,1.344,0,0,0,235.63,49.808Z" transform="translate(-214.445 -25.093)" fill="#282828"/>
      <path id="パス_5212" data-name="パス 5212" d="M293.259,54.536h-3.53l-.391-2.453h-.1a4.616,4.616,0,0,1-4.316,2.777,3.4,3.4,0,0,1-2.943-1.306,7.026,7.026,0,0,1-.948-4.087V34.495h4.512V49.2a4.486,4.486,0,0,0,.293,1.912,1.02,1.02,0,0,0,.982.572,2.007,2.007,0,0,0,1.129-.361,2.252,2.252,0,0,0,.8-.914V34.491h4.508Z" transform="translate(-252.585 -26.092)" fill="#282828"/>
      <path id="パス_5213" data-name="パス 5213" d="M334.094,11.745h-4.478v23.8H325.2v-23.8h-4.478V8.118h13.37Z" transform="translate(-281.165 -7.102)" fill="#282828"/>
      <path id="パス_5214" data-name="パス 5214" d="M375.906,54.536h-3.53l-.391-2.453h-.1a4.615,4.615,0,0,1-4.316,2.777,3.4,3.4,0,0,1-2.943-1.306,7.026,7.026,0,0,1-.948-4.087V34.495h4.512V49.2a4.486,4.486,0,0,0,.293,1.912,1.02,1.02,0,0,0,.982.572,2.007,2.007,0,0,0,1.129-.361,2.253,2.253,0,0,0,.8-.914V34.491h4.508Z" transform="translate(-312.095 -26.092)" fill="#282828"/>
      <path id="パス_5215" data-name="パス 5215" d="M429.279,16.095a5.178,5.178,0,0,0-1.324-2.747,3.547,3.547,0,0,0-2.517-.85,4.162,4.162,0,0,0-2.322.7,4.777,4.777,0,0,0-1.667,1.848h-.034V4.49h-4.346V32.93h3.725l.459-1.9h.1a3.854,3.854,0,0,0,1.569,1.6,4.659,4.659,0,0,0,2.322.587,3.556,3.556,0,0,0,3.368-2.107,15.187,15.187,0,0,0,1.08-6.589V21.356A26.416,26.416,0,0,0,429.279,16.095Zm-4.135,8.177a25.191,25.191,0,0,1-.181,3.432,3.672,3.672,0,0,1-.606,1.765,1.394,1.394,0,0,1-1.144.523,2.072,2.072,0,0,1-1.031-.263,1.971,1.971,0,0,1-.768-.783V17.57a2.82,2.82,0,0,1,.786-1.34,1.728,1.728,0,0,1,1.208-.523,1.217,1.217,0,0,1,1.061.538,4.124,4.124,0,0,1,.523,1.814,33.942,33.942,0,0,1,.147,3.627v2.585Z" transform="translate(-350.536 -4.49)" fill="#282828"/>
      <path id="パス_5216" data-name="パス 5216" d="M473.669,46.05a27.1,27.1,0,0,0,.113,2.894,2.748,2.748,0,0,0,.474,1.407,1.351,1.351,0,0,0,1.11.44,1.4,1.4,0,0,0,1.388-.786,6.809,6.809,0,0,0,.41-2.615l3.891.229a5.9,5.9,0,0,1,.034.719,5.318,5.318,0,0,1-1.52,4.151,6.192,6.192,0,0,1-4.3,1.373q-3.336,0-4.674-2.092t-1.34-6.472V41.8q0-4.51,1.388-6.589t4.756-2.077a6.273,6.273,0,0,1,3.564.85,4.568,4.568,0,0,1,1.75,2.649,19.108,19.108,0,0,1,.508,4.971v3.432h-7.556Zm.572-9.445a2.767,2.767,0,0,0-.459,1.389,27.534,27.534,0,0,0-.113,2.928v1.437h3.3V40.921a24.434,24.434,0,0,0-.132-2.928,2.8,2.8,0,0,0-.474-1.407,1.316,1.316,0,0,0-1.061-.41A1.291,1.291,0,0,0,474.241,36.605Z" transform="translate(-388.115 -25.113)" fill="#282828"/>
    </g>
  </g>
</svg>
